{
  "accessors": [
    {
      "bufferView": 2,
      "componentType": 5126,
      "count": 208,
      "max": [
        0.079316288232803345,
        0.017718156799674034,
        0.1488940417766571
      ],
      "min": [
        -0.079316288232803345,
        -0.037846818566322327,
        -0.00064739538356661797
      ],
      "type": "VEC3"
    },
    {
      "bufferView": 2,
      "byteOffset": 2496,
      "componentType": 5126,
      "count": 208,
      "max": [
        0.99061256647109985,
        0.99514907598495483,
        0.071661874651908875
      ],
      "min": [
        -0.99061256647109985,
        -0.99858200550079346,
        -0.97729843854904175
      ],
      "type": "VEC3"
    },
    {
      "bufferView": 1,
      "componentType": 5126,
      "count": 208,
      "max": [
        1,
        1
      ],
      "min": [
        0,
        0
      ],
      "type": "VEC2"
    },
    {
      "bufferView": 0,
      "componentType": 5125,
      "count": 768,
      "max": [
        207
      ],
      "min": [
        0
      ],
      "type": "SCALAR"
    },
    {
      "bufferView": 2,
      "byteOffset": 4992,
      "componentType": 5126,
      "count": 115,
      "max": [
        0.089065089821815491,
        0.08416873961687088,
        0.055894404649734497
      ],
      "min": [
        -0.089065089821815491,
        -0.04055483266711235,
        0.0034219361841678619
      ],
      "type": "VEC3"
    },
    {
      "bufferView": 2,
      "byteOffset": 6372,
      "componentType": 5126,
      "count": 115,
      "max": [
        0.95823007822036743,
        0.13134831190109253,
        -0.052784081548452377
      ],
      "min": [
        -0.95823019742965698,
        -0.99860596656799316,
        -0.46581724286079407
      ],
      "type": "VEC3"
    },
    {
      "bufferView": 1,
      "byteOffset": 1664,
      "componentType": 5126,
      "count": 115,
      "max": [
        1,
        1
      ],
      "min": [
        0,
        0
      ],
      "type": "VEC2"
    },
    {
      "bufferView": 0,
      "byteOffset": 3072,
      "componentType": 5125,
      "count": 480,
      "max": [
        114
      ],
      "min": [
        0
      ],
      "type": "SCALAR"
    },
    {
      "bufferView": 2,
      "byteOffset": 7752,
      "componentType": 5126,
      "count": 4895,
      "max": [
        -0.48643755912780762,
        1.0205287933349609,
        0.048949398100376129
      ],
      "min": [
        -0.85403478145599365,
        0.61351370811462402,
        -0.22686848044395447
      ],
      "type": "VEC3"
    },
    {
      "bufferView": 2,
      "byteOffset": 66492,
      "componentType": 5126,
      "count": 4895,
      "max": [
        0.99891972541809082,
        0.99999457597732544,
        0.99735808372497559
      ],
      "min": [
        -0.99927288293838501,
        -0.99999904632568359,
        -0.99990725517272949
      ],
      "type": "VEC3"
    },
    {
      "bufferView": 0,
      "byteOffset": 4992,
      "componentType": 5125,
      "count": 29160,
      "max": [
        4894
      ],
      "min": [
        0
      ],
      "type": "SCALAR"
    },
    {
      "bufferView": 2,
      "byteOffset": 125232,
      "componentType": 5126,
      "count": 21905,
      "max": [
        0.46513637900352478,
        -0.97293335199356079,
        0.78035914897918701
      ],
      "min": [
        -0.42774301767349243,
        -1.8909720182418823,
        -1.5215916633605957
      ],
      "type": "VEC3"
    },
    {
      "bufferView": 2,
      "byteOffset": 388092,
      "componentType": 5126,
      "count": 21905,
      "max": [
        0.99995917081832886,
        0.99999415874481201,
        0.99993294477462769
      ],
      "min": [
        -0.99999153614044189,
        -0.99991345405578613,
        -0.99997085332870483
      ],
      "type": "VEC3"
    },
    {
      "bufferView": 1,
      "byteOffset": 2584,
      "componentType": 5126,
      "count": 21905,
      "max": [
        0.99650102853775024,
        0.99642300605773926
      ],
      "min": [
        0.0049450001679360867,
        0
      ],
      "type": "VEC2"
    },
    {
      "bufferView": 0,
      "byteOffset": 121632,
      "componentType": 5125,
      "count": 106092,
      "max": [
        21904
      ],
      "min": [
        0
      ],
      "type": "SCALAR"
    }
  ],
  "asset": {
    "extras": {
      "author": "Mingxuan Xie (https://sketchfab.com/vrchitecture)",
      "license": "CC-BY-4.0 (http://creativecommons.org/licenses/by/4.0/)",
      "source": "https://sketchfab.com/3d-models/color-suit-noamt-1f534834f1094ed8b15d5befca5f671c",
      "title": "Color-suit-noamt"
    },
    "generator": "Sketchfab-9.55.1",
    "version": "2.0"
  },
  "bufferViews": [
    {
      "buffer": 0,
      "byteLength": 546000,
      "byteOffset": 0,
      "name": "floatBufferViews",
      "target": 34963
    },
    {
      "buffer": 0,
      "byteLength": 177824,
      "byteOffset": 546000,
      "byteStride": 8,
      "name": "floatBufferViews",
      "target": 34962
    },
    {
      "buffer": 0,
      "byteLength": 650952,
      "byteOffset": 723824,
      "byteStride": 12,
      "name": "floatBufferViews",
      "target": 34962
    }
  ],
  "buffers": [
    {
      "byteLength": 1374776,
      "uri": "scene.bin"
    }
  ],
  "extensionsRequired": [
    "KHR_materials_pbrSpecularGlossiness"
  ],
  "extensionsUsed": [
    "KHR_materials_pbrSpecularGlossiness"
  ],
  "images": [
    {
      "uri": "textures/TextureAtlas_1001_diffuse.jpeg"
    }
  ],
  "materials": [
    {
      "alphaMode": "BLEND",
      "doubleSided": true,
      "extensions": {
        "KHR_materials_pbrSpecularGlossiness": {
          "diffuseFactor": [
            0.60874919592727783,
            0,
            1,
            0.67496035259903331
          ],
          "glossinessFactor": 1,
          "specularFactor": [
            0.60217794168167171,
            0.60217794168167171,
            0.60217794168167171
          ]
        }
      },
      "name": "Box002__0"
    },
    {
      "doubleSided": true,
      "emissiveFactor": [
        0,
        0,
        0
      ],
      "extensions": {
        "KHR_materials_pbrSpecularGlossiness": {
          "diffuseFactor": [
            1,
            1,
            1,
            1
          ],
          "glossinessFactor": 1,
          "specularFactor": [
            1,
            1,
            1
          ]
        }
      },
      "name": "01_-_Default"
    },
    {
      "doubleSided": true,
      "emissiveFactor": [
        0,
        0,
        0
      ],
      "extensions": {
        "KHR_materials_pbrSpecularGlossiness": {
          "diffuseFactor": [
            1,
            1,
            1,
            1
          ],
          "diffuseTexture": {
            "index": 0,
            "texCoord": 0
          },
          "glossinessFactor": 0.091573098328692329,
          "specularFactor": [
            0,
            0,
            0
          ]
        }
      },
      "name": "TextureAtlas_1001"
    }
  ],
  "meshes": [
    {
      "name": "Box002__0",
      "primitives": [
        {
          "attributes": {
            "NORMAL": 1,
            "POSITION": 0,
            "TEXCOORD_0": 2
          },
          "indices": 3,
          "material": 0,
          "mode": 4
        }
      ]
    },
    {
      "name": "Box003__0",
      "primitives": [
        {
          "attributes": {
            "NORMAL": 5,
            "POSITION": 4,
            "TEXCOORD_0": 6
          },
          "indices": 7,
          "material": 0,
          "mode": 4
        }
      ]
    },
    {
      "name": "Front_parts13_253_01 - Default_0",
      "primitives": [
        {
          "attributes": {
            "NORMAL": 9,
            "POSITION": 8
          },
          "indices": 10,
          "material": 1,
          "mode": 4
        }
      ]
    },
    {
      "name": "TexturedMesh_TextureAtlas_1001_0",
      "primitives": [
        {
          "attributes": {
            "NORMAL": 12,
            "POSITION": 11,
            "TEXCOORD_0": 13
          },
          "indices": 14,
          "material": 2,
          "mode": 4
        }
      ]
    }
  ],
  "nodes": [
    {
      "children": [
        1
      ],
      "name": "RootNode (gltf orientation matrix)",
      "rotation": [
        -0.70710678118654746,
        -0,
        -0,
        0.70710678118654757
      ]
    },
    {
      "children": [
        2
      ],
      "name": "RootNode (model correction matrix)"
    },
    {
      "children": [
        3
      ],
      "matrix": [
        1,
        0,
        0,
        0,
        0,
        0,
        1,
        0,
        0,
        -1,
        0,
        0,
        0,
        0,
        0,
        1
      ],
      "name": "5481ca71ccbf4594a67b46745c6b5420.fbx"
    },
    {
      "children": [
        4,
        6,
        8,
        11
      ],
      "name": "RootNode"
    },
    {
      "children": [
        5
      ],
      "matrix": [
        1,
        0,
        0,
        0,
        0,
        2.2204460492503131e-16,
        -1,
        0,
        0,
        1,
        2.2204460492503131e-16,
        0,
        0,
        1.862645149230957e-09,
        1.862645149230957e-09,
        1
      ],
      "name": "Box002"
    },
    {
      "mesh": 0,
      "name": "Box002__0"
    },
    {
      "children": [
        7
      ],
      "matrix": [
        1,
        0,
        0,
        0,
        0,
        2.2204460492503131e-16,
        -1,
        0,
        0,
        1,
        2.2204460492503131e-16,
        0,
        3.7252902984619141e-09,
        1.555790901184082,
        0.080970831215381622,
        1
      ],
      "name": "Box003"
    },
    {
      "mesh": 1,
      "name": "Box003__0"
    },
    {
      "children": [
        9
      ],
      "matrix": [
        0.58125197887420654,
        0,
        0,
        0,
        0,
        0.58963900804519598,
        2.5773939498744415e-08,
        0,
        0,
        -3.4264003278798518e-08,
        0.78386902809142989,
        0,
        0.0044778883457183838,
        1.5813655853271484,
        -0.00026014394825324416,
        1
      ],
      "name": "Front_parts13_253"
    },
    {
      "children": [
        10
      ],
      "matrix": [
        1,
        0,
        -0,
        0,
        0,
        1,
        0,
        0,
        0,
        0,
        1,
        0,
        0.67023617029190063,
        -0.82337409257888794,
        0.082961849868297577,
        1
      ],
      "name": ""
    },
    {
      "mesh": 2,
      "name": "Front_parts13_253_01 - Default_0"
    },
    {
      "children": [
        12
      ],
      "matrix": [
        0.66960197687149037,
        -1.5582379660806092e-08,
        2.3413015288741226e-09,
        0,
        2.3412988038435925e-09,
        -1.1709930370901401e-07,
        -0.66960197687148026,
        0,
        1.5582380070250251e-08,
        0.66960197687148015,
        -1.170993035603325e-07,
        0,
        -5.9604644775390625e-08,
        -1.1920928955078125e-07,
        4.8722114343036083e-08,
        1
      ],
      "name": "TexturedMesh"
    },
    {
      "children": [
        13
      ],
      "matrix": [
        0.83724451014159118,
        0.54393209857589564,
        -0.056209450954346915,
        0,
        0.53737913028681694,
        -0.79939108286709826,
        0.26869604940294983,
        0,
        0.10121907216503861,
        -0.25517007812709996,
        -0.96158355365441772,
        0,
        0.80579447746276855,
        -1.1977248191833496,
        1.321298360824585,
        1
      ],
      "name": ""
    },
    {
      "mesh": 3,
      "name": "TexturedMesh_TextureAtlas_1001_0"
    }
  ],
  "samplers": [
    {
      "magFilter": 9729,
      "minFilter": 9987,
      "wrapS": 10497,
      "wrapT": 10497
    }
  ],
  "scene": 0,
  "scenes": [
    {
      "name": "OSG_Scene",
      "nodes": [
        0
      ]
    }
  ],
  "textures": [
    {
      "sampler": 0,
      "source": 0
    }
  ]
}

